<svg xmlns="http://www.w3.org/2000/svg" version="1.1" xmlns:xlink="http://www.w3.org/1999/xlink" xmlns:svgjs="http://svgjs.com/svgjs" id="Pattern1179SvgRootPreview" width="100%" height="100%"><defs><pattern x="0" y="0" width="1" height="1" patternUnits="userSpaceOnUse" id="Pattern1179Layer1"><g id="PatternRootContent1"><g id="Pattern1179Layer1background"><rect width="1" height="1" id="Pattern1179Background1" class="color_1 fill_color_1" fill="#ffeabf"></rect></g></g></pattern><pattern x="0" y="0" width="60" height="104" patternUnits="userSpaceOnUse" id="Pattern1179Layer2" patternTransform="matrix(1.2,0,0,1.2,0,0)"><g id="PatternRootContent2"><g id="Pattern1179Layer2Element3"><use xlink:href="#Pattern1179Element3" x="26.189376831054688" y="-56.1427059173584" transform="translate(60, -26) scale(1) translate(-60, 26) rotate(0, 60, -26)"></use><use xlink:href="#Pattern1179Element3" x="-33.81062316894531" y="-56.1427059173584" transform="translate(0, -26) scale(1) translate(0, 26) rotate(0, 0, -26)"></use><use xlink:href="#Pattern1179Element3" x="-3.8106231689453125" y="-4.142705917358398" transform="translate(30, 26) scale(1) translate(-30, -26) rotate(0, 30, 26)"></use><use xlink:href="#Pattern1179Element3" x="-63.81062316894531" y="-4.142705917358398" transform="translate(-30, 26) scale(1) translate(30, -26) rotate(0, -30, 26)"></use><use xlink:href="#Pattern1179Element3" x="56.18937683105469" y="-4.142705917358398" transform="translate(90, 26) scale(1) translate(-90, -26) rotate(0, 90, 26)"></use><use xlink:href="#Pattern1179Element3" x="26.189376831054688" y="47.8572940826416" transform="translate(60, 78) scale(1) translate(-60, -78) rotate(0, 60, 78)"></use><use xlink:href="#Pattern1179Element3" x="-33.81062316894531" y="47.8572940826416" transform="translate(0, 78) scale(1) translate(0, -78) rotate(0, 0, 78)"></use><use xlink:href="#Pattern1179Element3" x="-3.8106231689453125" y="99.8572940826416" transform="translate(30, 130) scale(1) translate(-30, -130) rotate(0, 30, 130)"></use><use xlink:href="#Pattern1179Element3" x="-3.8106231689453125" y="99.8572940826416" transform="translate(30, 130) scale(1) translate(-30, -130) rotate(0, 30, 130)"></use></g></g></pattern><symbol id="Pattern1179Element3"><g class="color_4 fill_color_4" fill="#ffb594"><g><path d="M33.52,46.84590148925781C32.72,47.636,32.69,48.876,33.45,49.615901947021484L32,51.0359001159668C30.47,49.536,30.53,47.066,32.13,45.49589920043945C32.66,44.976,33.31,44.646,33.97,44.455902099609375L30.81,41.37590026855469L32.26,39.955902099609375L32.63,39.605899810791016C33.63,38.626,33.66,37.076,32.71,36.14590072631836L30.97,34.455902099609375L32.43,33.0359001159668L36.59,37.09590148925781C37.35,37.846,37.31,39.086,36.52,39.865901947021484L34.34,41.98590087890625L37.81,45.365901947021484L37.42,45.75590133666992C36.92,46.246,36.19,46.496,35.53,46.31590270996094C34.85,46.136,34.07,46.316,33.52,46.84590148925781Z"></path><path d="M36.718,51.379756927490234C36.434,50.292,35.375,49.646,34.354,49.93413543701172L33.849,47.9683952331543C35.913,47.394,38.023,48.68,38.582,50.85097885131836C38.768,51.57,38.728,52.298,38.563,52.9644660949707L42.81,51.767826080322266L43.315,53.73356246948242L43.433,54.2289924621582C43.782,55.585,45.109,56.386,46.39,56.02827453613281L48.723,55.366390228271484L49.223,57.34078598022461L43.627,58.9134521484375C42.597,59.197,41.543,58.542,41.263,57.467830657958984L40.517,54.5198974609375L35.855,55.83500289916992L35.712,55.30225372314453C35.538,54.624,35.686,53.867,36.172,53.385467529296875C36.668,52.887,36.902,52.121,36.718,51.379756927490234Z"></path><path d="M31.193,51.88204574584961C32.277,52.18,33.366,51.586,33.627,50.55767059326172L35.581,51.1034049987793C35.047,53.179,32.878,54.362,30.719,53.76082229614258C30.003,53.562,29.393,53.164,28.898,52.68733596801758L27.811,56.9639778137207L25.856,56.41823959350586L25.368,56.27281188964844C24.019,55.897,22.662,56.646,22.331,57.933528900146484L21.738,60.2854118347168L19.778,59.731014251708984L21.214,54.098350524902344C21.484,53.065,22.577,52.48,23.648,52.77397155761719L26.574,53.601905822753906L27.766,48.90679931640625L28.299,49.0495491027832C28.973,49.238,29.555,49.745,29.729,50.406333923339844C29.913,51.085,30.459,51.671,31.193,51.88204574584961Z"></path></g><g><path d="M19.2,38.242774963378906C18.116,37.945,17.027,38.539,16.766,39.56715393066406L14.811,39.02141571044922C15.346,36.946,17.515,35.763,19.674,36.36399841308594C20.39,36.563,21.001,36.961,21.495,37.4374885559082L22.582,33.16084671020508L24.537,33.70658493041992L25.025,33.852012634277344C26.374,34.228,27.731,33.479,28.061,32.1912956237793L28.655,29.83941078186035L30.615,30.393808364868164L29.179,36.02647399902344C28.91,37.06,27.816,37.645,26.745,37.350852966308594L23.819,36.522918701171875L22.627,41.21802520751953L22.094,41.07527542114258C21.42,40.887,20.838,40.38,20.664,39.71848678588867C20.48,39.039,19.934,38.454,19.2,38.242774963378906Z"></path><path d="M16.873,43.27925109863281C17.673,42.489,17.703,41.249,16.943,40.509159088134766L18.392,39.08894348144531C19.922,40.589,19.863,43.059,18.263,44.62913513183594C17.733,45.15,17.083,45.479,16.423,45.66942596435547L19.583,48.749114990234375L18.133,50.16932678222656L17.763,50.519229888916016C16.763,51.499,16.733,53.049,17.683,53.97970962524414L19.423,55.66920471191406L17.963,57.08941650390625L13.803,53.02946853637695C13.042,52.279,13.083,51.039,13.873,50.259376525878906L16.053,48.13935470581055L12.583,44.75949478149414L12.973,44.36927795410156C13.473,43.879,14.203,43.629,14.863,43.80925750732422C15.543,43.989,16.323,43.809,16.873,43.27925109863281Z"></path><path d="M13.675,38.74560546875C13.959,39.833,15.018,40.479,16.039,40.191322326660156L16.543,42.15640640258789C14.479,42.732,12.37,41.445,11.811,39.274497985839844C11.626,38.555,11.665,37.828,11.83,37.16072463989258L7.583,38.35767364501953L7.078,36.3917236328125L6.96,35.89638900756836C6.611,34.54,5.284,33.739,4.003,34.09663009643555L1.67,34.75901794433594L1.17,32.7844123840332L6.766,31.21169090270996C7.796,30.929,8.85,31.583,9.13,32.657405853271484L9.876,35.60536575317383L14.538,34.29011535644531L14.681,34.823081970214844C14.855,35.501,14.707,36.258,14.221,36.739891052246094C13.726,37.238,13.491,38.004,13.675,38.74560546875Z"></path></g><g><path d="M19.49,21.539583206176758C19.207,20.452,18.148,19.806,17.127,20.093961715698242L16.622,18.128223419189453C18.686,17.553,20.795,18.84,21.355,21.010807037353516C21.54,21.73,21.501,22.458,21.335,23.12429428100586L25.583,21.927654266357422L26.087,23.893390655517578L26.205,24.38882064819336C26.554,25.745,27.882,26.546,29.162,26.18810272216797L31.496,25.52621841430664L31.995,27.5006160736084L26.399,29.07328224182129C25.37,29.357,24.316,28.702,24.035,27.62765884399414L23.289,24.679725646972656L18.627,25.99483299255371L18.484,25.46208381652832C18.31,24.784,18.459,24.027,18.944,23.5452938079834C19.441,23.047,19.675,22.281,19.49,21.539583206176758Z"></path><path d="M13.965,22.042203903198242C15.049,22.34,16.138,21.746,16.399,20.717731475830078L18.354,21.26325798034668C17.82,23.338,15.651,24.522,13.491,23.92086410522461C12.776,23.723,12.165,23.324,11.67,22.847667694091797L10.583,27.12399673461914L8.628,26.57847023010254L8.14,26.432947158813477C6.792,26.057,5.434,26.806,5.103,28.094144821166992L4.51,30.445524215698242L2.55,29.891338348388672L3.986,24.258726119995117C4.256,23.225,5.35,22.64,6.42,22.93425178527832L9.346,23.76216697692871L10.538,19.067201614379883L11.071,19.209735870361328C11.746,19.398,12.327,19.905,12.501,20.566499710083008C12.685,21.245,13.231,21.831,13.965,22.042203903198242Z"></path><path d="M16.293,17.006269454956055C15.493,17.796,15.463,19.036,16.222,19.776363372802734L14.773,21.195709228515625C13.243,19.696,13.303,17.226,14.902,15.656384468078613C15.433,15.136,16.083,14.807,16.743,14.616096496582031L13.582,11.536405563354492L15.033,10.116194725036621L15.403,9.766288757324219C16.403,8.786,16.433,7.236,15.483,6.305810451507568L13.742,4.616314888000488L15.203,3.196104049682617L19.363,7.256049156188965C20.123,8.007,20.083,9.246,19.293,10.026144981384277L17.113,12.146167755126953L20.583,15.52602481842041L20.193,15.916240692138672C19.693,16.406,18.963,16.656,18.303,16.47626304626465C17.623,16.296,16.843,16.476,16.293,17.006269454956055Z"></path></g><g><path d="M34.101,13.43951416015625C34.901,12.65,34.931,11.41,34.171,10.669513702392578L35.621,9.249513626098633C37.151,10.75,37.091,13.22,35.491,14.78951358795166C34.961,15.31,34.311,15.64,33.651,15.829513549804688L36.811,18.909513473510742L35.361,20.329513549804688L34.991,20.679513931274414C33.991,21.66,33.961,23.21,34.911,24.13951301574707L36.651,25.829513549804688L35.191,27.249513626098633L31.031,23.18951416015625C30.271,22.44,30.311,21.2,31.101,20.419513702392578L33.281,18.299514770507812L29.811,14.919513702392578L30.201,14.529513359069824C30.701,14.04,31.431,13.79,32.091,13.969512939453125C32.771,14.15,33.551,13.97,34.101,13.43951416015625Z"></path><path d="M30.903,8.905658721923828C31.187,9.994,32.246,10.64,33.267,10.351280212402344L33.772,12.317018508911133C31.708,12.892,29.598,11.606,29.039,9.43443489074707C28.853,8.716,28.893,7.988,29.058,7.320947647094727L24.811,8.517589569091797L24.306,6.551851272583008L24.188,6.056423187255859C23.839,4.701,22.512,3.9,21.231,4.25714111328125L18.898,4.919025421142578L18.398,2.9446277618408203L23.994,1.3719615936279297C25.024,1.089,26.078,1.744,26.358,2.8175830841064453L27.104,5.7655181884765625L31.766,4.450410842895508L31.909,4.983161926269531C32.083,5.662,31.935,6.419,31.449,6.8999481201171875C30.953,7.399,30.719,8.165,30.903,8.905658721923828Z"></path><path d="M36.428,8.40336799621582C35.344,8.106,34.255,8.7,33.994,9.727745056152344L32.04,9.182008743286133C32.574,7.107,34.743,5.924,36.902,6.524591445922852C37.618,6.724,38.228,7.122,38.723,7.598079681396484L39.81,3.3214378356933594L41.765,3.867176055908203L42.253,4.012603759765625C43.602,4.389,44.959,3.64,45.29,2.351886749267578L45.883,0.0000019073484054388246L47.843,0.5543994903564453L46.407,6.187065124511719C46.137,7.221,45.044,7.806,43.973,7.511444091796875L41.047,6.683507919311523L39.855,11.378616333007812L39.322,11.23586654663086C38.648,11.048,38.066,10.541,37.892,9.879079818725586C37.708,9.201,37.162,8.615,36.428,8.40336799621582Z"></path></g><g><path d="M48.421,22.042638778686523C49.505,22.341,50.594,21.747,50.855,20.718259811401367L52.81,21.263996124267578C52.276,23.339,50.107,24.522,47.947,23.92141342163086C47.232,23.723,46.621,23.325,46.126,22.847925186157227L45.039,27.12456512451172L43.084,26.578828811645508L42.596,26.433401107788086C41.247,26.058,39.89,26.807,39.56,28.094118118286133L38.966,30.446002960205078L37.006,29.891605377197266L38.442,24.25893783569336C38.712,23.226,39.806,22.641,40.876,22.934560775756836L43.802,23.762495040893555L44.995,19.0673885345459L45.527,19.21013641357422C46.201,19.398,46.783,19.905,46.957,20.566926956176758C47.141,21.246,47.687,21.831,48.421,22.042638778686523Z"></path><path d="M50.749,17.006160736083984C49.948,17.796,49.918,19.036,50.679,19.776254653930664L49.229,21.196468353271484C47.699,19.696,47.758,17.226,49.359,15.656277656555176C49.888,15.136,50.539,14.807,51.199,14.615987777709961L48.039,11.536298751831055L49.489,10.116086959838867L49.859,9.766181945800781C50.858,8.786,50.888,7.236,49.938,6.305703163146973L48.199,4.616207599639893L49.659,3.195996046066284L53.819,7.255941867828369C54.579,8.006,54.539,9.247,53.749,10.026037216186523L51.569,12.146059036254883L55.039,15.52591609954834L54.649,15.916132926940918C54.148,16.406,53.418,16.656,52.759,16.47615623474121C52.079,16.296,51.298,16.476,50.749,17.006160736083984Z"></path><path d="M53.946,21.539806365966797C53.662,20.452,52.603,19.806,51.582,20.09408950805664L51.078,18.129005432128906C53.142,17.554,55.251,18.841,55.81,21.010913848876953C55.996,21.731,55.956,22.458,55.791,23.12468910217285L60.038,21.927738189697266L60.543,23.893688201904297L60.661,24.389022827148438C61.01,25.745,62.337,26.546,63.618,26.18878173828125L65.951,25.52639389038086L66.451,27.501001358032227L60.855,29.07372283935547C59.825,29.357,58.772,28.703,58.491,27.628005981445312L57.745,24.6800479888916L53.083,25.995298385620117L52.94,25.462331771850586C52.766,24.785,52.914,24.027,53.4,23.545522689819336C53.896,23.047,54.13,22.281,53.946,21.539806365966797Z"></path></g><g><path d="M48.131,38.74583053588867C48.415,39.834,49.474,40.479,50.495,40.19145202636719L50.999,42.157188415527344C48.935,42.732,46.826,41.445,46.267,39.27460479736328C46.081,38.555,46.12,37.828,46.286,37.16111755371094L42.039,38.357757568359375L41.534,36.39202117919922L41.416,35.89659118652344C41.067,34.54,39.739,33.739,38.459,34.09730911254883L36.126,34.759193420410156L35.626,32.78479766845703L41.222,31.21213150024414C42.251,30.929,43.305,31.583,43.586,32.657752990722656L44.332,35.60568618774414L48.994,34.29058074951172L49.137,34.82332992553711C49.311,35.501,49.162,36.258,48.677,36.74011993408203C48.181,37.239,47.947,38.004,48.131,38.74583053588867Z"></path><path d="M53.656,38.24320983886719C52.572,37.945,51.483,38.539,51.222,39.56768035888672L49.267,39.02215576171875C49.802,36.947,51.97,35.763,54.13,36.36454772949219C54.846,36.563,55.456,36.961,55.951,37.437744140625L57.038,33.161415100097656L58.993,33.70694351196289L59.481,33.85246658325195C60.83,34.228,62.187,33.479,62.518,32.19126892089844L63.111,29.839889526367188L65.071,30.394075393676758L63.635,36.02668762207031C63.365,37.06,62.271,37.646,61.201,37.35116195678711L58.275,36.52324676513672L57.083,41.21821212768555L56.55,41.07567596435547C55.875,40.887,55.294,40.38,55.12,39.71891403198242C54.936,39.04,54.39,38.454,53.656,38.24320983886719Z"></path><path d="M51.329,43.279144287109375C52.128,42.489,52.158,41.249,51.399,40.50904846191406L52.848,39.08970260620117C54.379,40.59,54.319,43.06,52.719,44.6290283203125C52.188,45.149,51.539,45.479,50.879,45.669315338134766L54.039,48.74900817871094L52.589,50.16921615600586L52.219,50.51912307739258C51.218,51.499,51.189,53.049,52.138,53.9796028137207L53.879,55.669097900390625L52.419,57.08930969238281L48.259,53.029361724853516C47.498,52.279,47.538,51.04,48.329,50.2592658996582L50.509,48.139244079589844L47.039,44.7593879699707L47.429,44.369171142578125C47.929,43.879,48.659,43.629,49.319,43.80915069580078C49.998,43.989,50.779,43.809,51.329,43.279144287109375Z"></path></g></g></symbol></defs><rect width="100%" height="100%" id="Pattern1179RctLayer1" fill="url(#Pattern1179Layer1)"></rect><rect width="100%" height="100%" id="Pattern1179RctLayer2" fill="url(#Pattern1179Layer2)"></rect></svg>